 http://www.blu-ray.com/movies/Megadeth-Rust-in-Peace-Live-Blu-ray/13007/

Release Date: 07 September 2010

Genre: Music

Plot: Megadeth: Rust in Peace Live, recorded on March 31 at the Hollywood Palladium, on the final night of Megadeth's historic month-long Rust In Peace 20th anniversary tour.

Set List:

001:Holy Wars...The Punishment Due
002:Hangar 18
003:Take No Prisoners
004:Five Magics
005:Poison Was The Cure
006:Lucretia
007:Tornado Of Souls
008:Dawn Patrol
009:Rust In Peace...Polaris
010:Holy Wars - Reprise
011:Skin O' My Teeth
012:In My Darkest Hour
013:She-Wolf
014:Trust
015:Symphony Of Destruction
016:Peace Sells

Screens 
http://www.imagebam.com/image/7ff66f98462547

File Name

Megadeth Rust In Peace Live 2010 720p MBRRip H264.mp4

File Size
Format : MPEG-4
Format profile : Base Media
Codec ID : isom
File size : 1.75 GiB
Duration : 1h 13mn
Overall bit rate : 3 393 Kbps

Video
ID : 1
Format : AVC
Format/Info : Advanced Video Codec
Format profile : High@L4.1
Format settings, CABAC : Yes
Format settings, ReFrames : 3 frames
Codec ID : avc1
Codec ID/Info : Advanced Video Coding
Duration : 1h 13mn
Bit rate mode : Variable
Bit rate : 2 749 Kbps
Maximum bit rate : 8 759 Kbps
Width : 1 280 pixels
Height : 720 pixels
Display aspect ratio : 16:9
Frame rate mode : Constant
Frame rate : 29.970 fps
Resolution : 24 bits
Colorimetry : 4:2:0
Scan type : Progressive
Bits/(Pixel*Frame) : 0.100
Stream size : 1.42 GiB (81%)

Audio #1
ID : 2
Format : AAC
Format/Info : Advanced Audio Codec
Format version : Version 4
Format profile : LC
Format settings, SBR : No
Codec ID : 40
Duration : 1h 13mn
Bit rate mode : Variable
Bit rate : 192 Kbps
Maximum bit rate : 196 Kbps
Channel(s) : 2 channels
Channel positions : L R
Sampling rate : 48.0 KHz
Resolution : 16 bits
Stream size : 101 MiB (6%)

Audio #2
ID : 3
Format : AAC
Format/Info : Advanced Audio Codec
Format version : Version 4
Format profile : LC
Format settings, SBR : No
Codec ID : 40
Duration : 1h 13mn
Bit rate mode : Variable
Bit rate : 448 Kbps
Maximum bit rate : 458 Kbps
Channel(s) : 6 channels
Channel positions : Front: L C R, Rear: L R, LFE